<?xml version="1.0" encoding="UTF-8" standalone="no"?>
<svg width="219px" height="70px" viewBox="0 0 219 70" version="1.1" xmlns="http://www.w3.org/2000/svg" xmlns:xlink="http://www.w3.org/1999/xlink" xmlns:sketch="http://www.bohemiancoding.com/sketch/ns">
    <!-- Generator: Sketch 3.2 (9964) - http://www.bohemiancoding.com/sketch -->
    <title>adminlogo</title>
    <desc>Created with Sketch.</desc>
    <defs></defs>
    <g id="Page-1" stroke="none" stroke-width="1" fill="none" fill-rule="evenodd" sketch:type="MSPage">
        <g id="Group" sketch:type="MSLayerGroup" transform="translate(0.000000, -32.000000)">
            <g id="adminlogo" sketch:type="MSShapeGroup">
                <g id="Tell-the-world-your--+-Twenty" transform="translate(1.000000, 0.000000)" fill="#8F8F8F">
                    <path d="M5.4606464,88.504 L13.5526464,88.504 L13.5526464,90.016 L10.3746464,90.016 L10.3746464,98.5 L8.6246464,98.5 L8.6246464,90.016 L5.4606464,90.016 L5.4606464,88.504 Z M19.4606464,94.244 C19.4419796,93.9919987 19.3883135,93.7493345 19.2996464,93.516 C19.2109793,93.2826655 19.0896472,93.0796675 18.9356464,92.907 C18.7816456,92.7343325 18.5949808,92.5943339 18.3756464,92.487 C18.156312,92.3796661 17.9113144,92.326 17.6406464,92.326 C17.360645,92.326 17.1063142,92.3749995 16.8776464,92.473 C16.6489786,92.5710005 16.4529805,92.7063325 16.2896464,92.879 C16.1263122,93.0516675 15.9956469,93.2546655 15.8976464,93.488 C15.7996459,93.7213345 15.7459798,93.973332 15.7366464,94.244 L19.4606464,94.244 Z M15.7366464,95.294 C15.7366464,95.5740014 15.7763127,95.8446654 15.8556464,96.106 C15.9349801,96.3673346 16.0539789,96.595999 16.2126464,96.792 C16.3713139,96.988001 16.5719785,97.1443327 16.8146464,97.261 C17.0573143,97.3776672 17.3466447,97.436 17.6826464,97.436 C18.1493154,97.436 18.5249783,97.3356677 18.8096464,97.135 C19.0943145,96.9343323 19.3066457,96.6333353 19.4466464,96.232 L20.9586464,96.232 C20.874646,96.624002 20.7299808,96.9739985 20.5246464,97.282 C20.319312,97.5900015 20.0719812,97.8489989 19.7826464,98.059 C19.4933116,98.269001 19.1689815,98.4276661 18.8096464,98.535 C18.4503113,98.6423339 18.0746484,98.696 17.6826464,98.696 C17.1133102,98.696 16.6093153,98.6026676 16.1706464,98.416 C15.7319775,98.2293324 15.3609812,97.9680017 15.0576464,97.632 C14.7543115,97.2959983 14.5256472,96.894669 14.3716464,96.428 C14.2176456,95.961331 14.1406464,95.4480028 14.1406464,94.888 C14.1406464,94.3746641 14.2223122,93.8870023 14.3856464,93.425 C14.5489805,92.9629977 14.7823115,92.5570017 15.0856464,92.207 C15.3889812,91.8569982 15.7553109,91.5793344 16.1846464,91.374 C16.6139819,91.1686656 17.0993104,91.066 17.6406464,91.066 C18.2099826,91.066 18.7209775,91.1849988 19.1736464,91.423 C19.6263153,91.6610012 20.0019782,91.975998 20.3006464,92.368 C20.5993146,92.760002 20.8163124,93.2103308 20.9516464,93.719 C21.0869804,94.2276692 21.1219801,94.752664 21.0566464,95.294 L15.7366464,95.294 Z M22.3166464,88.504 L23.9126464,88.504 L23.9126464,98.5 L22.3166464,98.5 L22.3166464,88.504 Z M25.6906464,88.504 L27.2866464,88.504 L27.2866464,98.5 L25.6906464,98.5 L25.6906464,88.504 Z M32.1866464,91.262 L33.3906464,91.262 L33.3906464,89.092 L34.9866464,89.092 L34.9866464,91.262 L36.4286464,91.262 L36.4286464,92.452 L34.9866464,92.452 L34.9866464,96.316 C34.9866464,96.4840008 34.9936463,96.6286661 35.0076464,96.75 C35.0216465,96.8713339 35.0543128,96.9739996 35.1056464,97.058 C35.15698,97.1420004 35.2339792,97.2049998 35.3366464,97.247 C35.4393136,97.2890002 35.5793122,97.31 35.7566464,97.31 C35.868647,97.31 35.9806458,97.3076667 36.0926464,97.303 C36.204647,97.2983333 36.3166458,97.2820001 36.4286464,97.254 L36.4286464,98.486 C36.2513122,98.5046668 36.0786472,98.5233332 35.9106464,98.542 C35.7426456,98.5606668 35.5699806,98.57 35.3926464,98.57 C34.9726443,98.57 34.6343143,98.5303337 34.3776464,98.451 C34.1209784,98.3716663 33.9203138,98.2550008 33.7756464,98.101 C33.630979,97.9469992 33.53298,97.7533345 33.4816464,97.52 C33.4303128,97.2866655 33.3999798,97.0206682 33.3906464,96.722 L33.3906464,92.452 L32.1866464,92.452 L32.1866464,91.262 Z M37.5766464,88.504 L39.1726464,88.504 L39.1726464,92.214 L39.2006464,92.214 C39.3966474,91.8873317 39.6883111,91.6143344 40.0756464,91.395 C40.4629817,91.1756656 40.894644,91.066 41.3706464,91.066 C42.1639837,91.066 42.7893108,91.2713313 43.2466464,91.682 C43.703982,92.0926687 43.9326464,92.7086626 43.9326464,93.53 L43.9326464,98.5 L42.3366464,98.5 L42.3366464,93.95 C42.3179796,93.3806638 42.1966475,92.9676679 41.9726464,92.711 C41.7486453,92.454332 41.3986488,92.326 40.9226464,92.326 C40.6519784,92.326 40.4093141,92.3749995 40.1946464,92.473 C39.9799787,92.5710005 39.7979805,92.7063325 39.6486464,92.879 C39.4993123,93.0516675 39.3826468,93.2546655 39.2986464,93.488 C39.214646,93.7213345 39.1726464,93.9686654 39.1726464,94.23 L39.1726464,98.5 L37.5766464,98.5 L37.5766464,88.504 Z M50.5826464,94.244 C50.5639796,93.9919987 50.5103135,93.7493345 50.4216464,93.516 C50.3329793,93.2826655 50.2116472,93.0796675 50.0576464,92.907 C49.9036456,92.7343325 49.7169808,92.5943339 49.4976464,92.487 C49.278312,92.3796661 49.0333144,92.326 48.7626464,92.326 C48.482645,92.326 48.2283142,92.3749995 47.9996464,92.473 C47.7709786,92.5710005 47.5749805,92.7063325 47.4116464,92.879 C47.2483122,93.0516675 47.1176469,93.2546655 47.0196464,93.488 C46.9216459,93.7213345 46.8679798,93.973332 46.8586464,94.244 L50.5826464,94.244 Z M46.8586464,95.294 C46.8586464,95.5740014 46.8983127,95.8446654 46.9776464,96.106 C47.0569801,96.3673346 47.1759789,96.595999 47.3346464,96.792 C47.4933139,96.988001 47.6939785,97.1443327 47.9366464,97.261 C48.1793143,97.3776672 48.4686447,97.436 48.8046464,97.436 C49.2713154,97.436 49.6469783,97.3356677 49.9316464,97.135 C50.2163145,96.9343323 50.4286457,96.6333353 50.5686464,96.232 L52.0806464,96.232 C51.996646,96.624002 51.8519808,96.9739985 51.6466464,97.282 C51.441312,97.5900015 51.1939812,97.8489989 50.9046464,98.059 C50.6153116,98.269001 50.2909815,98.4276661 49.9316464,98.535 C49.5723113,98.6423339 49.1966484,98.696 48.8046464,98.696 C48.2353102,98.696 47.7313153,98.6026676 47.2926464,98.416 C46.8539775,98.2293324 46.4829812,97.9680017 46.1796464,97.632 C45.8763115,97.2959983 45.6476472,96.894669 45.4936464,96.428 C45.3396456,95.961331 45.2626464,95.4480028 45.2626464,94.888 C45.2626464,94.3746641 45.3443122,93.8870023 45.5076464,93.425 C45.6709805,92.9629977 45.9043115,92.5570017 46.2076464,92.207 C46.5109812,91.8569982 46.8773109,91.5793344 47.3066464,91.374 C47.7359819,91.1686656 48.2213104,91.066 48.7626464,91.066 C49.3319826,91.066 49.8429775,91.1849988 50.2956464,91.423 C50.7483153,91.6610012 51.1239782,91.975998 51.4226464,92.368 C51.7213146,92.760002 51.9383124,93.2103308 52.0736464,93.719 C52.2089804,94.2276692 52.2439801,94.752664 52.1786464,95.294 L46.8586464,95.294 Z M56.6306464,91.262 L58.3246464,91.262 L59.7386464,96.666 L59.7666464,96.666 L61.1246464,91.262 L62.7346464,91.262 L64.0366464,96.666 L64.0646464,96.666 L65.5346464,91.262 L67.1586464,91.262 L64.8906464,98.5 L63.2526464,98.5 L61.9086464,93.124 L61.8806464,93.124 L60.5506464,98.5 L58.8706464,98.5 L56.6306464,91.262 Z M71.4986464,98.696 C70.9199768,98.696 70.4043153,98.6003343 69.9516464,98.409 C69.4989775,98.2176657 69.1163146,97.9540017 68.8036464,97.618 C68.4909782,97.2819983 68.2529805,96.880669 68.0896464,96.414 C67.9263122,95.947331 67.8446464,95.4340028 67.8446464,94.874 C67.8446464,94.3233306 67.9263122,93.814669 68.0896464,93.348 C68.2529805,92.881331 68.4909782,92.4800017 68.8036464,92.144 C69.1163146,91.8079983 69.4989775,91.5443343 69.9516464,91.353 C70.4043153,91.1616657 70.9199768,91.066 71.4986464,91.066 C72.077316,91.066 72.5929775,91.1616657 73.0456464,91.353 C73.4983153,91.5443343 73.8809782,91.8079983 74.1936464,92.144 C74.5063146,92.4800017 74.7443122,92.881331 74.9076464,93.348 C75.0709805,93.814669 75.1526464,94.3233306 75.1526464,94.874 C75.1526464,95.4340028 75.0709805,95.947331 74.9076464,96.414 C74.7443122,96.880669 74.5063146,97.2819983 74.1936464,97.618 C73.8809782,97.9540017 73.4983153,98.2176657 73.0456464,98.409 C72.5929775,98.6003343 72.077316,98.696 71.4986464,98.696 L71.4986464,98.696 Z M71.4986464,97.436 C71.8533148,97.436 72.1613118,97.3613341 72.4226464,97.212 C72.683981,97.0626659 72.8986456,96.8666679 73.0666464,96.624 C73.2346472,96.3813321 73.3583127,96.1083348 73.4376464,95.805 C73.5169801,95.5016651 73.5566464,95.1913349 73.5566464,94.874 C73.5566464,94.5659985 73.5169801,94.2580015 73.4376464,93.95 C73.3583127,93.6419985 73.2346472,93.3690012 73.0666464,93.131 C72.8986456,92.8929988 72.683981,92.6993341 72.4226464,92.55 C72.1613118,92.4006659 71.8533148,92.326 71.4986464,92.326 C71.143978,92.326 70.835981,92.4006659 70.5746464,92.55 C70.3133118,92.6993341 70.0986472,92.8929988 69.9306464,93.131 C69.7626456,93.3690012 69.6389801,93.6419985 69.5596464,93.95 C69.4803127,94.2580015 69.4406464,94.5659985 69.4406464,94.874 C69.4406464,95.1913349 69.4803127,95.5016651 69.5596464,95.805 C69.6389801,96.1083348 69.7626456,96.3813321 69.9306464,96.624 C70.0986472,96.8666679 70.3133118,97.0626659 70.5746464,97.212 C70.835981,97.3613341 71.143978,97.436 71.4986464,97.436 L71.4986464,97.436 Z M76.4826464,91.262 L77.9806464,91.262 L77.9806464,92.662 L78.0086464,92.662 C78.0553133,92.465999 78.1463124,92.2746676 78.2816464,92.088 C78.4169804,91.9013324 78.5803121,91.7310008 78.7716464,91.577 C78.9629807,91.4229992 79.1753119,91.2993338 79.4086464,91.206 C79.6419809,91.1126662 79.8799785,91.066 80.1226464,91.066 C80.309314,91.066 80.437646,91.0706666 80.5076464,91.08 C80.5776467,91.0893334 80.6499794,91.0986666 80.7246464,91.108 L80.7246464,92.648 C80.6126458,92.6293332 80.4983136,92.6130001 80.3816464,92.599 C80.2649791,92.5849999 80.150647,92.578 80.0386464,92.578 C79.7679784,92.578 79.5136476,92.6316661 79.2756464,92.739 C79.0376452,92.8463339 78.8299806,93.0049989 78.6526464,93.215 C78.4753122,93.425001 78.3353136,93.6839985 78.2326464,93.992 C78.1299792,94.3000015 78.0786464,94.6546647 78.0786464,95.056 L78.0786464,98.5 L76.4826464,98.5 L76.4826464,91.262 Z M81.4526464,88.504 L83.0486464,88.504 L83.0486464,98.5 L81.4526464,98.5 L81.4526464,88.504 Z M91.6026464,98.5 L90.0906464,98.5 L90.0906464,97.52 L90.0626464,97.52 C89.8479787,97.9400021 89.5353151,98.2409991 89.1246464,98.423 C88.7139777,98.6050009 88.279982,98.696 87.8226464,98.696 C87.2533102,98.696 86.7563152,98.5956677 86.3316464,98.395 C85.9069776,98.1943323 85.5546478,97.9213351 85.2746464,97.576 C84.994645,97.2306649 84.7846471,96.8223357 84.6446464,96.351 C84.5046457,95.8796643 84.4346464,95.373336 84.4346464,94.832 C84.4346464,94.1786634 84.5233122,93.6140024 84.7006464,93.138 C84.8779806,92.6619976 85.1136449,92.2700015 85.4076464,91.962 C85.7016479,91.6539985 86.0376445,91.4276674 86.4156464,91.283 C86.7936483,91.1383326 87.1786444,91.066 87.5706464,91.066 C87.7946475,91.066 88.0233119,91.0869998 88.2566464,91.129 C88.4899809,91.1710002 88.7139787,91.2386662 88.9286464,91.332 C89.1433141,91.4253338 89.3416455,91.5443326 89.5236464,91.689 C89.7056473,91.8336674 89.8573125,92.003999 89.9786464,92.2 L90.0066464,92.2 L90.0066464,88.504 L91.6026464,88.504 L91.6026464,98.5 Z M86.0306464,94.958 C86.0306464,95.2660015 86.0703127,95.5693318 86.1496464,95.868 C86.2289801,96.1666682 86.3503122,96.4326655 86.5136464,96.666 C86.6769805,96.8993345 86.8846451,97.0859993 87.1366464,97.226 C87.3886477,97.3660007 87.6873113,97.436 88.0326464,97.436 C88.3873148,97.436 88.6929784,97.3613341 88.9496464,97.212 C89.2063143,97.0626659 89.4163122,96.8666679 89.5796464,96.624 C89.7429805,96.3813321 89.8643127,96.1083348 89.9436464,95.805 C90.0229801,95.5016651 90.0626464,95.1913349 90.0626464,94.874 C90.0626464,94.0713293 89.8829815,93.4460022 89.5236464,92.998 C89.1643113,92.5499978 88.6766495,92.326 88.0606464,92.326 C87.6873112,92.326 87.3723143,92.4029992 87.1156464,92.557 C86.8589784,92.7110008 86.6489805,92.9116654 86.4856464,93.159 C86.3223122,93.4063346 86.2056467,93.6863318 86.1356464,93.999 C86.065646,94.3116682 86.0306464,94.6313317 86.0306464,94.958 L86.0306464,94.958 Z M96.4326464,91.262 L98.1826464,91.262 L100.072646,96.666 L100.100646,96.666 L101.934646,91.262 L103.600646,91.262 L100.786646,98.892 C100.655979,99.2186683 100.527647,99.5313318 100.401646,99.83 C100.275646,100.128668 100.121647,100.392332 99.9396464,100.621 C99.7576455,100.849668 99.5313144,101.031666 99.2606464,101.167 C98.9899784,101.302334 98.6446485,101.37 98.2246464,101.37 C97.8513112,101.37 97.4826482,101.342 97.1186464,101.286 L97.1186464,99.942 C97.2493137,99.9606668 97.3753125,99.9816665 97.4966464,100.005 C97.6179803,100.028333 97.7439791,100.04 97.8746464,100.04 C98.061314,100.04 98.2153125,100.016667 98.3366464,99.97 C98.4579803,99.9233331 98.5583127,99.8556671 98.6376464,99.767 C98.7169801,99.6783329 98.7846461,99.5733339 98.8406464,99.452 C98.8966467,99.3306661 98.9479795,99.1906675 98.9946464,99.032 L99.1766464,98.472 L96.4326464,91.262 Z M107.814646,98.696 C107.235977,98.696 106.720315,98.6003343 106.267646,98.409 C105.814977,98.2176657 105.432315,97.9540017 105.119646,97.618 C104.806978,97.2819983 104.568981,96.880669 104.405646,96.414 C104.242312,95.947331 104.160646,95.4340028 104.160646,94.874 C104.160646,94.3233306 104.242312,93.814669 104.405646,93.348 C104.568981,92.881331 104.806978,92.4800017 105.119646,92.144 C105.432315,91.8079983 105.814977,91.5443343 106.267646,91.353 C106.720315,91.1616657 107.235977,91.066 107.814646,91.066 C108.393316,91.066 108.908977,91.1616657 109.361646,91.353 C109.814315,91.5443343 110.196978,91.8079983 110.509646,92.144 C110.822315,92.4800017 111.060312,92.881331 111.223646,93.348 C111.386981,93.814669 111.468646,94.3233306 111.468646,94.874 C111.468646,95.4340028 111.386981,95.947331 111.223646,96.414 C111.060312,96.880669 110.822315,97.2819983 110.509646,97.618 C110.196978,97.9540017 109.814315,98.2176657 109.361646,98.409 C108.908977,98.6003343 108.393316,98.696 107.814646,98.696 L107.814646,98.696 Z M107.814646,97.436 C108.169315,97.436 108.477312,97.3613341 108.738646,97.212 C108.999981,97.0626659 109.214646,96.8666679 109.382646,96.624 C109.550647,96.3813321 109.674313,96.1083348 109.753646,95.805 C109.83298,95.5016651 109.872646,95.1913349 109.872646,94.874 C109.872646,94.5659985 109.83298,94.2580015 109.753646,93.95 C109.674313,93.6419985 109.550647,93.3690012 109.382646,93.131 C109.214646,92.8929988 108.999981,92.6993341 108.738646,92.55 C108.477312,92.4006659 108.169315,92.326 107.814646,92.326 C107.459978,92.326 107.151981,92.4006659 106.890646,92.55 C106.629312,92.6993341 106.414647,92.8929988 106.246646,93.131 C106.078646,93.3690012 105.95498,93.6419985 105.875646,93.95 C105.796313,94.2580015 105.756646,94.5659985 105.756646,94.874 C105.756646,95.1913349 105.796313,95.5016651 105.875646,95.805 C105.95498,96.1083348 106.078646,96.3813321 106.246646,96.624 C106.414647,96.8666679 106.629312,97.0626659 106.890646,97.212 C107.151981,97.3613341 107.459978,97.436 107.814646,97.436 L107.814646,97.436 Z M119.154646,98.5 L117.586646,98.5 L117.586646,97.492 L117.558646,97.492 C117.362645,97.8560018 117.070982,98.1476656 116.683646,98.367 C116.296311,98.5863344 115.901982,98.696 115.500646,98.696 C114.548642,98.696 113.860315,98.4603357 113.435646,97.989 C113.010978,97.5176643 112.798646,96.8060048 112.798646,95.854 L112.798646,91.262 L114.394646,91.262 L114.394646,95.7 C114.394646,96.3346698 114.515979,96.7826654 114.758646,97.044 C115.001314,97.3053346 115.341978,97.436 115.780646,97.436 C116.116648,97.436 116.396645,97.3846672 116.620646,97.282 C116.844648,97.1793328 117.026646,97.0416675 117.166646,96.869 C117.306647,96.6963325 117.406979,96.4886679 117.467646,96.246 C117.528313,96.0033321 117.558646,95.7420014 117.558646,95.462 L117.558646,91.262 L119.154646,91.262 L119.154646,98.5 Z M120.834646,91.262 L122.332646,91.262 L122.332646,92.662 L122.360646,92.662 C122.407313,92.465999 122.498312,92.2746676 122.633646,92.088 C122.76898,91.9013324 122.932312,91.7310008 123.123646,91.577 C123.314981,91.4229992 123.527312,91.2993338 123.760646,91.206 C123.993981,91.1126662 124.231979,91.066 124.474646,91.066 C124.661314,91.066 124.789646,91.0706666 124.859646,91.08 C124.929647,91.0893334 125.001979,91.0986666 125.076646,91.108 L125.076646,92.648 C124.964646,92.6293332 124.850314,92.6130001 124.733646,92.599 C124.616979,92.5849999 124.502647,92.578 124.390646,92.578 C124.119978,92.578 123.865648,92.6316661 123.627646,92.739 C123.389645,92.8463339 123.181981,93.0049989 123.004646,93.215 C122.827312,93.425001 122.687314,93.6839985 122.584646,93.992 C122.481979,94.3000015 122.430646,94.6546647 122.430646,95.056 L122.430646,98.5 L120.834646,98.5 L120.834646,91.262 Z M130.858646,96.176 C130.905313,96.642669 131.082645,96.9693324 131.390646,97.156 C131.698648,97.3426676 132.067311,97.436 132.496646,97.436 C132.64598,97.436 132.816312,97.4243334 133.007646,97.401 C133.198981,97.3776665 133.378646,97.3333337 133.546646,97.268 C133.714647,97.2026663 133.852313,97.1070006 133.959646,96.981 C134.06698,96.8549994 134.11598,96.6893344 134.106646,96.484 C134.097313,96.2786656 134.022647,96.1106673 133.882646,95.98 C133.742646,95.8493327 133.562981,95.7443337 133.343646,95.665 C133.124312,95.5856663 132.874648,95.5180003 132.594646,95.462 C132.314645,95.4059997 132.029981,95.3453337 131.740646,95.28 C131.441978,95.2146663 131.154981,95.1353338 130.879646,95.042 C130.604312,94.9486662 130.356981,94.8226675 130.137646,94.664 C129.918312,94.5053325 129.743314,94.3023346 129.612646,94.055 C129.481979,93.8076654 129.416646,93.5020018 129.416646,93.138 C129.416646,92.745998 129.512312,92.4170013 129.703646,92.151 C129.894981,91.8849987 130.137645,91.6703341 130.431646,91.507 C130.725648,91.3436658 131.052311,91.2293337 131.411646,91.164 C131.770982,91.0986663 132.113978,91.066 132.440646,91.066 C132.813982,91.066 133.170978,91.1056663 133.511646,91.185 C133.852315,91.2643337 134.160312,91.3926658 134.435646,91.57 C134.710981,91.7473342 134.939645,91.9783319 135.121646,92.263 C135.303647,92.5476681 135.417979,92.8906647 135.464646,93.292 L133.798646,93.292 C133.723979,92.9093314 133.548981,92.6526673 133.273646,92.522 C132.998312,92.3913327 132.683315,92.326 132.328646,92.326 C132.216646,92.326 132.083647,92.3353332 131.929646,92.354 C131.775646,92.3726668 131.63098,92.4076664 131.495646,92.459 C131.360312,92.5103336 131.24598,92.5849995 131.152646,92.683 C131.059313,92.7810005 131.012646,92.9093325 131.012646,93.068 C131.012646,93.264001 131.080312,93.4226661 131.215646,93.544 C131.35098,93.6653339 131.528312,93.7656663 131.747646,93.845 C131.966981,93.9243337 132.216645,93.9919997 132.496646,94.048 C132.776648,94.1040003 133.065978,94.1646663 133.364646,94.23 C133.653981,94.2953337 133.938645,94.3746662 134.218646,94.468 C134.498648,94.5613338 134.748312,94.6873325 134.967646,94.846 C135.186981,95.0046675 135.364312,95.2053321 135.499646,95.448 C135.63498,95.6906679 135.702646,95.9893316 135.702646,96.344 C135.702646,96.7733355 135.604647,97.1373318 135.408646,97.436 C135.212645,97.7346682 134.958315,97.9773324 134.645646,98.164 C134.332978,98.3506676 133.985315,98.4859996 133.602646,98.57 C133.219978,98.6540004 132.841982,98.696 132.468646,98.696 C132.011311,98.696 131.588982,98.6446672 131.201646,98.542 C130.814311,98.4393328 130.478314,98.283001 130.193646,98.073 C129.908978,97.8629989 129.684981,97.6016682 129.521646,97.289 C129.358312,96.9763318 129.27198,96.6053355 129.262646,96.176 L130.858646,96.176 Z M136.192646,91.262 L137.396646,91.262 L137.396646,89.092 L138.992646,89.092 L138.992646,91.262 L140.434646,91.262 L140.434646,92.452 L138.992646,92.452 L138.992646,96.316 C138.992646,96.4840008 138.999646,96.6286661 139.013646,96.75 C139.027646,96.8713339 139.060313,96.9739996 139.111646,97.058 C139.16298,97.1420004 139.239979,97.2049998 139.342646,97.247 C139.445314,97.2890002 139.585312,97.31 139.762646,97.31 C139.874647,97.31 139.986646,97.3076667 140.098646,97.303 C140.210647,97.2983333 140.322646,97.2820001 140.434646,97.254 L140.434646,98.486 C140.257312,98.5046668 140.084647,98.5233332 139.916646,98.542 C139.748646,98.5606668 139.575981,98.57 139.398646,98.57 C138.978644,98.57 138.640314,98.5303337 138.383646,98.451 C138.126978,98.3716663 137.926314,98.2550008 137.781646,98.101 C137.636979,97.9469992 137.53898,97.7533345 137.487646,97.52 C137.436313,97.2866655 137.40598,97.0206682 137.396646,96.722 L137.396646,92.452 L136.192646,92.452 L136.192646,91.262 Z M144.900646,98.696 C144.321977,98.696 143.806315,98.6003343 143.353646,98.409 C142.900977,98.2176657 142.518315,97.9540017 142.205646,97.618 C141.892978,97.2819983 141.654981,96.880669 141.491646,96.414 C141.328312,95.947331 141.246646,95.4340028 141.246646,94.874 C141.246646,94.3233306 141.328312,93.814669 141.491646,93.348 C141.654981,92.881331 141.892978,92.4800017 142.205646,92.144 C142.518315,91.8079983 142.900977,91.5443343 143.353646,91.353 C143.806315,91.1616657 144.321977,91.066 144.900646,91.066 C145.479316,91.066 145.994977,91.1616657 146.447646,91.353 C146.900315,91.5443343 147.282978,91.8079983 147.595646,92.144 C147.908315,92.4800017 148.146312,92.881331 148.309646,93.348 C148.472981,93.814669 148.554646,94.3233306 148.554646,94.874 C148.554646,95.4340028 148.472981,95.947331 148.309646,96.414 C148.146312,96.880669 147.908315,97.2819983 147.595646,97.618 C147.282978,97.9540017 146.900315,98.2176657 146.447646,98.409 C145.994977,98.6003343 145.479316,98.696 144.900646,98.696 L144.900646,98.696 Z M144.900646,97.436 C145.255315,97.436 145.563312,97.3613341 145.824646,97.212 C146.085981,97.0626659 146.300646,96.8666679 146.468646,96.624 C146.636647,96.3813321 146.760313,96.1083348 146.839646,95.805 C146.91898,95.5016651 146.958646,95.1913349 146.958646,94.874 C146.958646,94.5659985 146.91898,94.2580015 146.839646,93.95 C146.760313,93.6419985 146.636647,93.3690012 146.468646,93.131 C146.300646,92.8929988 146.085981,92.6993341 145.824646,92.55 C145.563312,92.4006659 145.255315,92.326 144.900646,92.326 C144.545978,92.326 144.237981,92.4006659 143.976646,92.55 C143.715312,92.6993341 143.500647,92.8929988 143.332646,93.131 C143.164646,93.3690012 143.04098,93.6419985 142.961646,93.95 C142.882313,94.2580015 142.842646,94.5659985 142.842646,94.874 C142.842646,95.1913349 142.882313,95.5016651 142.961646,95.805 C143.04098,96.1083348 143.164646,96.3813321 143.332646,96.624 C143.500647,96.8666679 143.715312,97.0626659 143.976646,97.212 C144.237981,97.3613341 144.545978,97.436 144.900646,97.436 L144.900646,97.436 Z M149.884646,91.262 L151.382646,91.262 L151.382646,92.662 L151.410646,92.662 C151.457313,92.465999 151.548312,92.2746676 151.683646,92.088 C151.81898,91.9013324 151.982312,91.7310008 152.173646,91.577 C152.364981,91.4229992 152.577312,91.2993338 152.810646,91.206 C153.043981,91.1126662 153.281979,91.066 153.524646,91.066 C153.711314,91.066 153.839646,91.0706666 153.909646,91.08 C153.979647,91.0893334 154.051979,91.0986666 154.126646,91.108 L154.126646,92.648 C154.014646,92.6293332 153.900314,92.6130001 153.783646,92.599 C153.666979,92.5849999 153.552647,92.578 153.440646,92.578 C153.169978,92.578 152.915648,92.6316661 152.677646,92.739 C152.439645,92.8463339 152.231981,93.0049989 152.054646,93.215 C151.877312,93.425001 151.737314,93.6839985 151.634646,93.992 C151.531979,94.3000015 151.480646,94.6546647 151.480646,95.056 L151.480646,98.5 L149.884646,98.5 L149.884646,91.262 Z M154.014646,91.262 L155.764646,91.262 L157.654646,96.666 L157.682646,96.666 L159.516646,91.262 L161.182646,91.262 L158.368646,98.892 C158.237979,99.2186683 158.109647,99.5313318 157.983646,99.83 C157.857646,100.128668 157.703647,100.392332 157.521646,100.621 C157.339645,100.849668 157.113314,101.031666 156.842646,101.167 C156.571978,101.302334 156.226648,101.37 155.806646,101.37 C155.433311,101.37 155.064648,101.342 154.700646,101.286 L154.700646,99.942 C154.831314,99.9606668 154.957312,99.9816665 155.078646,100.005 C155.19998,100.028333 155.325979,100.04 155.456646,100.04 C155.643314,100.04 155.797312,100.016667 155.918646,99.97 C156.03998,99.9233331 156.140313,99.8556671 156.219646,99.767 C156.29898,99.6783329 156.366646,99.5733339 156.422646,99.452 C156.478647,99.3306661 156.529979,99.1906675 156.576646,99.032 L156.758646,98.472 L154.014646,91.262 Z" id="Tell-the-world-your-"></path>
                </g>
                <g id="Group" transform="translate(0.000000, 31.000000)" fill="#FFFFFF">
                    <g id="New-Mask-Group-+-T" transform="translate(0.211604, 0.639185)">
                        <path d="M0.103101635,0.645754946 L32.3566656,0.645754946 L29.4075374,6.50859608 L19.3470412,6.50859609 L19.3470412,41.1285404 L12.9581563,41.1285404 L12.9581563,6.50859609 L0.103101635,6.50859609 L0.103101635,0.645754946 Z M40.1366787,14.3345605 L45.6239064,33.3556333 C46.1219671,35.0888499 46.6887174,35.9554453 47.3241742,35.9554453 C48.0798525,35.9554453 48.7067126,35.2922346 49.2047733,33.9657933 L50.7504713,29.8007885 L46.422517,14.3345605 L51.7036517,14.3345605 L56.2892223,30.5170632 C56.9933771,33.0107728 57.5687145,34.5671072 58.0152517,35.1861132 C58.2556948,35.4867732 58.5648313,35.6371009 58.9426705,35.6371009 C59.9387919,35.6371009 60.7116332,34.6643919 61.2612174,32.7189447 L66.4908288,14.3345605 L71.8234868,14.3345605 L66.7484451,31.8434978 C65.8725452,34.867784 65.305795,36.6628742 65.0481774,37.2288225 C63.8459619,39.8640192 61.7764647,41.1815978 58.8396239,41.1815978 C57.2939182,41.1815978 56.0144366,40.7659857 55.0011407,39.9347492 C54.537429,39.5456598 53.9535045,38.8736063 53.2493497,37.9185685 C52.4421478,39.1035227 51.6091967,39.9391682 50.7504713,40.42553 C49.8917459,40.9118918 48.8269424,41.1550691 47.5560289,41.1550691 C45.7698801,41.1550691 44.2757203,40.6156577 43.0735048,39.5368188 C42.0258598,38.599467 41.2873671,37.3614737 40.8580044,35.8228018 L34.7782591,14.3345605 L40.1366787,14.3345605 Z M79.6550231,30.2517763 L79.6550231,33.7005064 C79.6550231,34.6909158 79.8095913,35.3452837 80.1187324,35.6636296 C80.4965716,36.0527191 81.3810455,36.2472609 82.7721806,36.2472609 L97.6350767,36.2472616 L99.7233348,41.2611838 L81.3552908,41.2611838 C79.2084774,41.2611838 77.7229047,40.9516855 76.8985284,40.3326796 C75.0780306,38.9708665 74.1677953,37.1315622 74.1677953,34.8147115 L74.1677953,20.8871477 C74.1677953,18.4288098 74.7603069,16.6690908 75.945348,15.6079378 C77.1819125,14.5290989 79.0539058,13.9896875 81.5613839,13.9896875 L93.1283569,13.9896875 C95.5156135,13.9896875 97.4648908,14.6882694 98.9762475,16.0854542 C100.041067,17.0581778 100.573469,18.5437698 100.573469,20.5422747 L100.573469,24.0175334 C100.573469,25.7153783 100.049654,27.1744418 99.0020091,28.3947678 C97.9543642,29.6327796 96.4945529,30.2517763 94.6225316,30.2517763 L79.6550231,30.2517763 Z M79.6550231,25.2378533 L92.3555079,25.2378533 C94.1760057,25.2378533 95.086241,24.3977864 95.086241,22.7176275 L95.086241,21.550365 C95.086241,20.5776414 94.8887371,19.9144307 94.4937234,19.560713 C94.0643607,19.1893095 93.394565,19.0036105 92.4843161,19.0036105 L82.3857561,19.0036105 C81.4411582,19.0036105 80.8572337,19.0566673 80.6339651,19.1627826 C79.9813338,19.4457568 79.6550231,20.1089675 79.6550231,21.1524346 L79.6550231,25.2378533 Z M103.252679,41.1020117 L103.252679,21.1789633 C103.252679,19.092029 103.870952,17.4295809 105.107516,16.191569 C106.395604,14.9181854 107.881177,14.2815031 109.564278,14.2815031 L120.384164,14.2815031 C122.634025,14.2815031 124.41156,14.9181854 125.716822,16.191569 C126.987736,17.4472668 127.623183,19.0301296 127.623183,20.940205 L127.623183,41.1020117 L122.135955,41.1020117 L122.135955,21.9748241 C122.135955,20.9844146 121.964213,20.3035183 121.620723,19.9321147 C121.225709,19.5076535 120.538739,19.2954261 119.559792,19.2954261 L112.011634,19.2954261 C110.568975,19.2954261 109.641565,19.5430247 109.229377,20.0382295 C108.903062,20.4273189 108.739906,21.072844 108.739906,21.9748241 L108.739906,41.1020117 L103.252679,41.1020117 Z M136.124522,7.1983421 L141.611749,7.1983421 L141.611749,14.8651344 L150.808652,14.8651344 L150.808652,19.8790573 L141.611749,19.8790573 L141.611749,33.4882768 C141.611749,34.5848016 141.87795,35.3187548 142.41036,35.6901583 C142.874072,36.043876 143.904527,36.2207322 145.501756,36.2207322 L148.491521,36.2207325 L150.551036,41.2346551 L144.059105,41.2346551 C141.860768,41.2346551 140.289324,40.9693709 139.344726,40.4387944 C137.197912,39.2007825 136.124522,37.0254514 136.124522,33.9127359 L136.124522,19.8790573 L130.0963,19.8790573 L130.0963,14.8651344 L136.124522,14.8651344 L136.124522,7.1983421 Z M167.630998,39.0327736 L166.008015,39.0327736 C164.599706,39.0327736 163.397508,38.7586465 162.401387,38.2103842 C160.975903,37.4322053 160.022732,36.2295832 159.541846,34.6024819 L153.384816,13.9101014 L158.691712,13.9101014 L163.895562,31.0476371 C164.427971,32.8339113 165.518536,33.727035 167.167289,33.727035 C168.798867,33.727035 169.889432,32.8339113 170.439016,31.0476371 L175.591343,13.9101014 L181.001286,13.9101014 L172.087761,42.799848 C171.263384,45.4704165 170.301626,47.3097208 169.202458,48.3178162 C167.845672,49.555828 165.973679,50.1748247 163.586422,50.1748247 L158.691712,50.1748247 L158.691712,45.1609017 L161.989201,45.1609017 C163.294463,45.1609017 164.29057,44.9221459 164.97755,44.444627 C165.716054,43.9317364 166.32574,42.9590274 166.806626,41.5264708 L167.630998,39.0327736 Z M185.586856,7.09222733 L185.586856,0.539640174 L191.074084,0.539640174 L191.074084,7.09222733 L185.586856,7.09222733 Z M179.713204,45.2935452 L182.546984,45.2935452 C183.697676,45.2758593 184.46193,45.0990031 184.839769,44.7629713 C185.33783,44.3385101 185.586856,43.5780285 185.586856,42.4815037 L185.586856,14.122331 L191.074084,12.2514395 L191.074084,42.110102 C191.074084,45.4881058 190.292656,47.751865 188.729775,48.9014474 C187.510385,49.8034275 185.655566,50.2544107 183.165263,50.2544107 L179.713204,50.2544107 L179.713204,45.2935452 Z M194.500381,41.1020117 L194.500381,36.0880887 L210.2665,36.0880887 C211.812206,36.0880887 212.585047,35.4690921 212.585047,34.2310802 L212.585047,31.8700265 C212.585047,30.5612711 211.812206,29.9069033 210.2665,29.9069033 L201.43026,29.9069033 C199.249098,29.9069033 197.557434,29.270221 196.355219,27.9968374 C195.118654,26.688082 194.500381,25.2201756 194.500381,23.5930743 L194.500381,20.8340903 C194.500381,18.9593866 195.118654,17.4030522 196.355219,16.1650403 C197.591783,14.9093426 199.137466,14.2815031 200.992313,14.2815031 L217.479757,14.2815031 L217.479757,19.2954261 L202.409202,19.2954261 C201.739397,19.2954261 201.168353,19.4722823 200.696054,19.8259999 C200.223755,20.1797176 199.987609,20.6130153 199.987609,21.1259059 L199.987609,23.1686153 C199.987609,23.5400188 200.159351,23.8937312 200.502842,24.229763 C200.966553,24.6719101 201.72222,24.8929803 202.769865,24.8929803 L211.245442,24.8929803 C213.392256,24.8929803 215.083919,25.556191 216.320484,26.8826323 C217.48835,28.13833 218.072275,29.4735942 218.072275,30.8884649 L218.072275,34.5759532 C218.072275,36.5214004 217.462589,38.0865777 216.243199,39.2715319 C215.006634,40.4918578 213.2291,41.1020117 210.910541,41.1020117 L194.500381,41.1020117 Z" id="Twentyjs"></path>
                    </g>
                </g>
            </g>
        </g>
    </g>
</svg>