<?xml version="1.0" encoding="UTF-8" standalone="no"?>
<svg width="1022px" height="279px" viewBox="0 0 1022 279" version="1.1" xmlns="http://www.w3.org/2000/svg" xmlns:xlink="http://www.w3.org/1999/xlink" xmlns:sketch="http://www.bohemiancoding.com/sketch/ns">
    <!-- Generator: Sketch 3.1 (8751) - http://www.bohemiancoding.com/sketch -->
    <title>Group</title>
    <desc>Created with Sketch.</desc>
    <defs>
        <polygon id="path-1" points="120.5 0 241.310544 69.75 241.310544 209.25 120.5 279 -0.310543828 209.25 -0.310543828 69.75 "></polygon>
        <linearGradient x1="50%" y1="0%" x2="50%" y2="98.8380899%" id="linearGradient-3">
            <stop stop-color="#50ED7E" offset="0%"></stop>
            <stop stop-color="#21938D" offset="100%"></stop>
        </linearGradient>
        <linearGradient x1="50%" y1="0%" x2="50%" y2="100%" id="linearGradient-4">
            <stop stop-color="#50ED72" offset="0%"></stop>
            <stop stop-color="#217193" offset="100%"></stop>
        </linearGradient>
        <linearGradient x1="50%" y1="0%" x2="50%" y2="100%" id="linearGradient-5">
            <stop stop-color="#50EDC5" offset="0%"></stop>
            <stop stop-color="#629321" offset="100%"></stop>
        </linearGradient>
        <linearGradient x1="50%" y1="0%" x2="50%" y2="100%" id="linearGradient-6">
            <stop stop-color="#FAFFFC" offset="0%"></stop>
            <stop stop-color="#FFFFFF" offset="98.6666932%"></stop>
        </linearGradient>
        <filter x="-50%" y="-50%" width="200%" height="200%" filterUnits="objectBoundingBox" id="filter-7">
            <feOffset dx="2" dy="2" in="SourceAlpha" result="shadowOffsetOuter1"></feOffset>
            <feGaussianBlur stdDeviation="1" in="shadowOffsetOuter1" result="shadowBlurOuter1"></feGaussianBlur>
            <feColorMatrix values="0 0 0 0 0   0 0 0 0 0   0 0 0 0 0  0 0 0 0 0" in="shadowBlurOuter1" type="matrix" result="shadowMatrixOuter1"></feColorMatrix>
            <feMerge>
                <feMergeNode in="shadowMatrixOuter1"></feMergeNode>
                <feMergeNode in="SourceGraphic"></feMergeNode>
            </feMerge>
        </filter>
    </defs>
    <g id="Page-1" stroke="none" stroke-width="1" fill="none" fill-rule="evenodd" sketch:type="MSPage">
        <g id="Group" sketch:type="MSLayerGroup" transform="translate(-21.000000, 0.000000)">
            <g id="New-Mask-Group-+-T" transform="translate(22.000000, 0.000000)">
                <g id="New-Mask-Group">
                    <mask id="mask-2" sketch:name="Mask" fill="white">
                        <use xlink:href="#path-1"></use>
                    </mask>
                    <use id="Mask" sketch:type="MSShapeGroup" xlink:href="#path-1"></use>
                    <path d="M-116.874582,137.24597 L-76.4583061,207.249014 L326.482585,-25.3890181 L286.066309,-95.3920618 L-116.874582,137.24597 Z" id="Rectangle-3" fill="url(#linearGradient-3)" sketch:type="MSShapeGroup" mask="url(#mask-2)"></path>
                    <path d="M-156.646424,253.190422 L-116.230148,323.193466 L286.710743,90.5554343 L246.294467,20.5523906 L-156.646424,253.190422 Z" id="Rectangle-4" fill="url(#linearGradient-4)" sketch:type="MSShapeGroup" mask="url(#mask-2)"></path>
                    <path d="M-88.5439554,306.631722 L-48.1276792,376.634766 L354.813212,143.996734 L314.396936,73.99369 L-88.5439554,306.631722 Z" id="Rectangle-5" fill="url(#linearGradient-5)" sketch:type="MSShapeGroup" mask="url(#mask-2)"></path>
                </g>
                <path d="M69.1503906,80.0576172 L173.076172,80.0576172 L173.076172,98.4023438 L131.157227,98.4023438 L131.157227,206.727539 L110.571289,206.727539 L110.571289,98.4023438 L69.1503906,98.4023438 L69.1503906,80.0576172 Z" id="T" fill="url(#linearGradient-6)" filter="url(#filter-7)" sketch:type="MSShapeGroup"></path>
                <path d="M318.150391,80.0576172 L422.076172,80.0576172 L422.076172,98.4023438 L380.157227,98.4023438 L380.157227,206.727539 L359.571289,206.727539 L359.571289,98.4023438 L318.150391,98.4023438 L318.150391,80.0576172 Z M447.144531,122.889648 L464.825195,182.40625 C466.430021,187.829454 468.256175,190.541016 470.303711,190.541016 C472.738619,190.541016 474.758456,188.465841 476.363281,184.31543 L481.34375,171.283203 L467.398438,122.889648 L484.415039,122.889648 L499.19043,173.524414 C501.459321,181.327187 503.313144,186.19693 504.751953,188.133789 C505.526697,189.074549 506.52278,189.544922 507.740234,189.544922 C510.949886,189.544922 513.440095,186.501333 515.210938,180.414063 L532.061523,122.889648 L549.244141,122.889648 L532.891602,177.674805 C530.069322,187.137743 528.243168,192.754548 527.413086,194.525391 C523.539369,202.770875 516.871141,206.893555 507.408203,206.893555 C502.427709,206.893555 498.305029,205.593112 495.040039,202.992188 C493.545891,201.774733 491.664399,199.67189 489.395508,196.683594 C486.794583,200.391295 484.110691,203.006015 481.34375,204.527832 C478.576809,206.04965 475.145854,206.810547 471.050781,206.810547 C465.295544,206.810547 460.481139,205.122738 456.607422,201.74707 C453.231754,198.814113 450.85222,194.940454 449.46875,190.125977 L429.878906,122.889648 L447.144531,122.889648 Z M574.478516,172.694336 L574.478516,183.485352 C574.478516,186.584325 574.976558,188.631831 575.972656,189.62793 C577.19011,190.845384 580.040017,191.454102 584.522461,191.454102 L639.141602,191.454102 L639.141602,207.142578 L579.957031,207.142578 C573.039679,207.142578 568.252943,206.174163 565.59668,204.237305 C559.730765,199.976216 556.797852,194.221065 556.797852,186.97168 L556.797852,143.392578 C556.797852,135.700482 558.707012,130.194353 562.525391,126.874023 C566.509786,123.498356 572.541626,121.810547 580.621094,121.810547 L617.891602,121.810547 C625.583697,121.810547 631.864559,123.996397 636.734375,128.368164 C640.165382,131.411799 641.880859,136.06019 641.880859,142.313477 L641.880859,153.1875 C641.880859,158.500027 640.193051,163.065411 636.817383,166.883789 C633.441715,170.757506 628.737986,172.694336 622.706055,172.694336 L574.478516,172.694336 Z M574.478516,157.005859 L615.401367,157.005859 C621.267282,157.005859 624.200195,154.377305 624.200195,149.120117 L624.200195,145.467773 C624.200195,142.424138 623.563808,140.348964 622.291016,139.242188 C620.907545,138.080072 618.749364,137.499023 615.816406,137.499023 L583.277344,137.499023 C580.233709,137.499023 578.352217,137.665037 577.632812,137.99707 C575.529937,138.882491 574.478516,140.957666 574.478516,144.222656 L574.478516,157.005859 Z M650.513672,206.644531 L650.513672,144.305664 C650.513672,137.775683 652.505839,132.573913 656.490234,128.700195 C660.640646,124.7158 665.427382,122.723633 670.850586,122.723633 L705.713867,122.723633 C712.963252,122.723633 718.690734,124.7158 722.896484,128.700195 C726.991557,132.629251 729.039062,137.582001 729.039062,143.558594 L729.039062,206.644531 L711.358398,206.644531 L711.358398,146.795898 C711.358398,143.696925 710.805019,141.566412 709.698242,140.404297 C708.425449,139.076165 706.21193,138.412109 703.057617,138.412109 L678.736328,138.412109 C674.087867,138.412109 671.099616,139.186841 669.771484,140.736328 C668.720047,141.953782 668.194336,143.973619 668.194336,146.795898 L668.194336,206.644531 L650.513672,206.644531 Z M756.431641,100.560547 L774.112305,100.560547 L774.112305,124.549805 L803.746094,124.549805 L803.746094,140.238281 L774.112305,140.238281 L774.112305,182.821289 C774.112305,186.252296 774.970044,188.548822 776.685547,189.710938 C778.179695,190.817714 781.499974,191.371094 786.646484,191.371094 L802.916016,191.371094 L802.916016,207.05957 L781.998047,207.05957 C774.914678,207.05957 769.851252,206.2295 766.807617,204.569336 C759.890265,200.695619 756.431641,193.889046 756.431641,184.149414 L756.431641,140.238281 L737.007812,140.238281 L737.007812,124.549805 L756.431641,124.549805 L756.431641,100.560547 Z M857.950195,200.169922 L852.720703,200.169922 C848.18292,200.169922 844.309261,199.312183 841.099609,197.59668 C836.506487,195.161772 833.435229,191.398788 831.885742,186.307617 L812.046875,121.561523 L829.561523,121.561523 L845.914062,175.18457 C847.629566,180.773791 851.143528,183.568359 856.456055,183.568359 C861.713242,183.568359 865.227205,180.773791 866.998047,175.18457 L883.599609,121.561523 L901.03125,121.561523 L872.310547,211.957031 C869.654284,220.313193 866.555356,226.068344 863.013672,229.222656 C858.641905,233.096374 852.610065,235.033203 844.917969,235.033203 L829.146484,235.033203 L829.146484,219.344727 L839.771484,219.344727 C843.977235,219.344727 847.186838,218.597664 849.400391,217.103516 C851.77996,215.49869 853.744458,212.455101 855.293945,207.972656 L857.950195,200.169922 Z M915.806641,100.228516 L915.806641,79.7255859 L933.487305,79.7255859 L933.487305,100.228516 L915.806641,100.228516 Z M896.880859,219.759766 L906.011719,219.759766 C909.71942,219.704427 912.18196,219.151047 913.399414,218.099609 C915.00424,216.771478 915.806641,214.391944 915.806641,210.960938 L915.806641,122.225586 L933.487305,122.225586 L933.487305,209.798828 C933.487305,220.368542 930.969426,227.451805 925.933594,231.048828 C922.004538,233.871108 916.028035,235.282227 908.003906,235.282227 L896.880859,235.282227 L896.880859,219.759766 Z M944.527344,206.644531 L944.527344,190.956055 L995.328125,190.956055 C1000.30862,190.956055 1002.79883,189.019225 1002.79883,185.145508 L1002.79883,177.757812 C1002.79883,173.66274 1000.30862,171.615234 995.328125,171.615234 L966.856445,171.615234 C959.828415,171.615234 954.377624,169.623067 950.503906,165.638672 C946.519511,161.543599 944.527344,156.950546 944.527344,151.859375 L944.527344,143.226562 C944.527344,137.360648 946.519511,132.490905 950.503906,128.617188 C954.488301,124.688131 959.46872,122.723633 965.445312,122.723633 L1018.57031,122.723633 L1018.57031,138.412109 L970.010742,138.412109 C967.852528,138.412109 966.01254,138.965489 964.490723,140.072266 C962.968905,141.179042 962.208008,142.534823 962.208008,144.139648 L962.208008,150.53125 C962.208008,151.693365 962.761388,152.800125 963.868164,153.851562 C965.362312,155.235033 967.797184,155.926758 971.172852,155.926758 L998.482422,155.926758 C1005.39977,155.926758 1010.85057,158.001932 1014.83496,162.152344 C1018.598,166.0814 1020.47949,170.259418 1020.47949,174.686523 L1020.47949,186.224609 C1020.47949,192.311879 1018.51499,197.209291 1014.58594,200.916992 C1010.60154,204.735371 1004.87406,206.644531 997.40332,206.644531 L944.527344,206.644531 Z" id="Twentyjs" fill="#FFFFFF" sketch:type="MSShapeGroup"></path>
            </g>
        </g>
    </g>
</svg>