<?xml version="1.0" encoding="UTF-8" standalone="no"?>
<svg width="251px" height="12px" viewBox="0 0 251 12" version="1.1" xmlns="http://www.w3.org/2000/svg" xmlns:xlink="http://www.w3.org/1999/xlink" xmlns:sketch="http://www.bohemiancoding.com/sketch/ns">
    <!-- Generator: Sketch Beta 3.1.1 (8761) - http://www.bohemiancoding.com/sketch -->
    <title>Group</title>
    <desc>Created with Sketch Beta.</desc>
    <defs></defs>
    <g id="Page-1" stroke="none" stroke-width="1" fill="none" fill-rule="evenodd" sketch:type="MSPage">
        <g id="Group" sketch:type="MSLayerGroup" transform="translate(-667.000000, -840.000000)">
            <g id="part.1" transform="translate(0.000000, 720.000000)" sketch:type="MSShapeGroup">
                <g id="Group" transform="translate(667.000000, 120.000000)">
                    <circle id="Oval-1" fill="#D8D8D8" cx="5.5" cy="6" r="5.5"></circle>
                    <circle id="Oval-1" fill="#D8D8D8" cx="135.5" cy="6" r="5.5"></circle>
                    <circle id="Oval-1" fill="#D8D8D8" cx="26.5" cy="6" r="5.5"></circle>
                    <circle id="Oval-1" fill="#D8D8D8" cx="157.5" cy="6" r="5.5"></circle>
                    <circle id="Oval-1" fill="#D8D8D8" cx="48.5" cy="6" r="5.5"></circle>
                    <circle id="Oval-1" fill="#FFE106" cx="179.5" cy="6" r="5.5"></circle>
                    <path d="M70.5,11.5 C73.5375661,11.5 76,9.03756612 76,6 C76,2.96243388 73.5375661,0.5 70.5,0.5 C67.4624339,0.5 65,2.96243388 65,6 C65,9.03756612 67.4624339,11.5 70.5,11.5 Z" id="Oval-1" fill="#FF8311"></path>
                    <circle id="Oval-1" fill="#D8D8D8" cx="201.5" cy="6" r="5.5"></circle>
                    <circle id="Oval-1" fill="#D8D8D8" cx="92.5" cy="6" r="5.5"></circle>
                    <circle id="Oval-1" fill="#7ED321" cx="223.5" cy="6" r="5.5"></circle>
                    <circle id="Oval-1" fill="#D8D8D8" cx="114.5" cy="6" r="5.5"></circle>
                    <circle id="Oval-1" fill="#D8D8D8" cx="245.5" cy="6" r="5.5"></circle>
                </g>
            </g>
        </g>
    </g>
</svg>